<svg width="99" height="69" viewBox="0 0 99 69" fill="none" xmlns="http://www.w3.org/2000/svg">
<path d="M1.0001 16L22.5001 1L44.0001 16L22.5001 30L1.0001 16Z" fill="#FC7F7F"/>
<path d="M54.5001 16L76.0001 1L97.5001 16L76.0001 30L54.5001 16Z" fill="#FC7F7F"/>
<path d="M27.5001 35L49.0001 20L70.5001 35L49.0001 49L27.5001 35Z" fill="#FC7F7F"/>
<path d="M1 54L22.5 39L44 54L22.5 68L1 54Z" fill="#FC7F7F"/>
<path d="M54.5001 54L76.0001 39L97.5001 54L76.0001 68L54.5001 54Z" fill="#FC7F7F"/>
<path d="M1.0001 16L22.5001 1L44.0001 16L22.5001 30L1.0001 16Z" stroke="#FC7F7F"/>
<path d="M54.5001 16L76.0001 1L97.5001 16L76.0001 30L54.5001 16Z" stroke="#FC7F7F"/>
<path d="M27.5001 35L49.0001 20L70.5001 35L49.0001 49L27.5001 35Z" stroke="#FC7F7F"/>
<path d="M1 54L22.5 39L44 54L22.5 68L1 54Z" stroke="#FC7F7F"/>
<path d="M54.5001 54L76.0001 39L97.5001 54L76.0001 68L54.5001 54Z" stroke="#FC7F7F"/>
</svg>
