<svg width="110" height="85" viewBox="0 0 110 85" fill="none" xmlns="http://www.w3.org/2000/svg">
<path fill-rule="evenodd" clip-rule="evenodd" d="M1 67L23 51L45 67L23 83.5L1 67ZM23 59.5L13 67L23 74.5L33 67L23 59.5Z" fill="#FC7F7F"/>
<path fill-rule="evenodd" clip-rule="evenodd" d="M64 17L86.5 1L108.5 17L86.5 33.5L64 17ZM86.5 9.5L76.5 17L86.5 24.5L96.5 17L86.5 9.5Z" fill="#FC7F7F"/>
<path d="M23 42.5L54.5 20L86.5 42.5L54.5 64L23 42.5Z" fill="#FC7F7F"/>
<path fill-rule="evenodd" clip-rule="evenodd" d="M64.5 67L86.5 51L108.5 67L86.5 83.5L64.5 67ZM86.5 59.5L76.5 67L86.5 74.5L96.5 67L86.5 59.5Z" fill="#FC7F7F"/>
<path fill-rule="evenodd" clip-rule="evenodd" d="M1 17L23 1L45.5 17L23 33.5L1 17ZM23 9.5L13 17L23 24.5L33 17L23 9.5Z" fill="#FC7F7F"/>
<path fill-rule="evenodd" clip-rule="evenodd" d="M1 67L23 51L45 67L23 83.5L1 67ZM23 59.5L13 67L23 74.5L33 67L23 59.5Z" stroke="#FC7F7F"/>
<path fill-rule="evenodd" clip-rule="evenodd" d="M64 17L86.5 1L108.5 17L86.5 33.5L64 17ZM86.5 9.5L76.5 17L86.5 24.5L96.5 17L86.5 9.5Z" stroke="#FC7F7F"/>
<path d="M23 42.5L54.5 20L86.5 42.5L54.5 64L23 42.5Z" stroke="#FC7F7F"/>
<path fill-rule="evenodd" clip-rule="evenodd" d="M64.5 67L86.5 51L108.5 67L86.5 83.5L64.5 67ZM86.5 59.5L76.5 67L86.5 74.5L96.5 67L86.5 59.5Z" stroke="#FC7F7F"/>
<path fill-rule="evenodd" clip-rule="evenodd" d="M1 17L23 1L45.5 17L23 33.5L1 17ZM23 9.5L13 17L23 24.5L33 17L23 9.5Z" stroke="#FC7F7F"/>
</svg>
